<?xml version="1.0" encoding="UTF-8"?>
<svg xmlns="http://www.w3.org/2000/svg" xmlns:xlink="http://www.w3.org/1999/xlink" viewBox="0 0 20 20" width="20px" height="20px">
<g id="surface7215549">
<path style=" stroke:none;fill-rule:nonzero;fill:rgb(97.254902%,97.254902%,97.254902%);fill-opacity:1;" d="M 15.332031 2 C 13.859375 2 12.667969 3.195312 12.667969 4.667969 C 12.667969 4.855469 12.6875 5.039062 12.730469 5.222656 L 6.675781 8.25 C 6.167969 7.667969 5.4375 7.335938 4.667969 7.332031 C 3.195312 7.332031 2 8.527344 2 10 C 2 11.472656 3.195312 12.667969 4.667969 12.667969 C 5.4375 12.664062 6.171875 12.332031 6.675781 11.75 L 12.726562 14.777344 C 12.6875 14.960938 12.667969 15.144531 12.667969 15.332031 C 12.667969 16.804688 13.859375 18 15.332031 18 C 16.804688 18 18 16.804688 18 15.332031 C 18 13.859375 16.804688 12.667969 15.332031 12.667969 C 14.5625 12.667969 13.828125 13 13.324219 13.582031 L 7.273438 10.558594 C 7.3125 10.375 7.332031 10.1875 7.332031 10 C 7.332031 9.8125 7.3125 9.625 7.269531 9.445312 L 13.324219 6.417969 C 13.832031 6.996094 14.5625 7.332031 15.332031 7.332031 C 16.804688 7.332031 18 6.140625 18 4.667969 C 18 3.195312 16.804688 2 15.332031 2 Z M 15.332031 2 "/>
</g>
</svg>
